<?xml version="1.0" encoding="UTF-8"?>
<svg width="2603px" height="2621px" viewBox="0 0 2603 2621" version="1.1" xmlns="http://www.w3.org/2000/svg" xmlns:xlink="http://www.w3.org/1999/xlink">
    <title>5</title>
    <defs>
        <linearGradient x1="50%" y1="0%" x2="50%" y2="100%" id="linearGradient-1">
            <stop stop-color="#20404E" offset="0%"></stop>
            <stop stop-color="#091216" offset="100%"></stop>
        </linearGradient>
        <path d="M1151.51733,0 C1321.14607,0 1490.74375,43.7253724 1643.13932,131.030675 L1643.13932,131.030675 L1647.69,133.653423 L1652.27182,136.326498 L1656.884,139.050392 L1661.52589,141.825672 L1666.19669,144.652834 L1670.89544,147.532276 L1675.621,150.464267 L1680.37196,153.448903 L1685.14656,156.486046 L1689.94259,159.575222 L1694.75716,162.715483 L1699.58644,165.905171 L1704.4251,169.141521 L1709.26536,172.41995 L1714.0951,175.732631 L1718.93112,179.091396 L1724.11273,182.735959 L1730.57676,187.348785 L1737.05029,192.057241 L1891.05212,305.629813 C2066.16476,434.771086 2190.39686,613.774124 2254.0931,812.760921 C2306.41285,976.207617 2317.81722,1153.11186 2283.16526,1326.87927 L2283.16526,1326.87927 L2282.11495,1332.07718 L2281.02755,1337.31866 L2279.90196,1342.60517 L2278.73744,1347.93624 L2277.53326,1353.31128 L2276.28878,1358.72948 L2275.00337,1364.18983 L2273.67651,1369.691 L2272.30779,1375.23125 L2270.89697,1380.80831 L2269.44404,1386.41912 L2267.94937,1392.05945 L2266.41389,1397.72332 L2264.8395,1403.40182 L2263.22977,1409.08084 L2261.58213,1414.76883 L2259.78124,1420.85356 L2257.46387,1428.49559 L2255.05564,1436.19046 L2196.23343,1619.95082 C2129.34348,1828.91475 1999.94421,2004.1066 1833.19245,2127.08192 C1695.84266,2228.37402 1533.1426,2294.17845 1359.13032,2314.39736 L1359.13032,2314.39736 L1353.92213,2314.98869 L1348.65877,2315.55788 L1343.34127,2316.10399 L1337.96983,2316.62615 L1332.54481,2317.1235 L1327.06676,2317.59514 L1321.53643,2318.04015 L1315.95493,2318.45763 L1310.32375,2318.84663 L1304.64496,2319.20621 L1298.92145,2319.53542 L1293.1573,2319.83331 L1287.35843,2320.09894 L1281.5338,2320.33137 L1275.69778,2320.52971 L1269.86442,2320.69344 L1263.70097,2320.82998 L1255.99348,2320.94906 L1248.19533,2321 L1057.89842,2321 C841.191598,2321 636.795701,2250.20602 469.842213,2127.08192 C332.552349,2025.83402 220.647523,1889.16665 148.005609,1727.46275 L148.005609,1727.46275 L145.845223,1722.62052 L143.689569,1717.72051 L141.538865,1712.76122 L139.393979,1707.74258 L137.25584,1702.66467 L135.125448,1697.52773 L133.003894,1692.33222 L130.892375,1687.07893 L128.792229,1681.76899 L126.704981,1676.40414 L124.632407,1670.98684 L122.576656,1665.52075 L120.540438,1660.01128 L118.527383,1654.46679 L116.542757,1648.90087 L114.595082,1643.33744 L112.585298,1637.48932 L110.133806,1630.20335 L107.726056,1622.83995 L48.941567,1439.19743 C-17.8997978,1230.38526 -14.7084066,1011.6032 48.941567,812.760921 C101.339854,649.068872 194.750291,498.948438 323.661182,378.918516 L323.661182,378.918516 L327.529372,375.33544 L331.454024,371.738242 L335.435826,368.127397 L339.47511,364.503721 L343.572096,360.868133 L347.726868,357.221673 L351.939326,353.565536 L356.209126,349.901115 L360.535597,346.23006 L364.917612,342.554369 L369.353394,338.876527 L373.8402,335.199733 L378.373787,331.528282 L382.947451,327.868265 L387.550098,324.228968 L392.170675,320.619198 L397.073833,316.834613 L403.235329,312.143584 L409.509752,307.453436 L563.461124,193.918077 C738.785612,64.620569 945.15734,0 1151.51733,0 L1151.51733,0 Z" id="path-2"></path>
        <filter x="-9.8%" y="-9.7%" width="119.6%" height="119.5%" filterUnits="objectBoundingBox" id="filter-3">
            <feOffset dx="0" dy="2" in="SourceAlpha" result="shadowOffsetOuter1"></feOffset>
            <feGaussianBlur stdDeviation="75" in="shadowOffsetOuter1" result="shadowBlurOuter1"></feGaussianBlur>
            <feColorMatrix values="0 0 0 0 0   0 0 0 0 0   0 0 0 0 0  0 0 0 0.603214291 0" type="matrix" in="shadowBlurOuter1"></feColorMatrix>
        </filter>
        <linearGradient x1="50%" y1="0%" x2="50%" y2="100%" id="linearGradient-4">
            <stop stop-color="#20404E" offset="0%"></stop>
            <stop stop-color="#091216" offset="100%"></stop>
        </linearGradient>
        <path d="M1151.51733,50 C1314.17782,50 1476.80497,92.3563418 1622.6082,176.907568 L1622.6082,176.907568 L1626.96057,179.446775 L1631.34184,182.034296 L1635.7514,184.670671 L1640.18848,187.356371 L1644.65219,190.091774 L1649.14142,192.877134 L1653.65484,195.712544 L1658.19077,198.597867 L1662.7471,201.532654 L1667.3211,204.516001 L1671.90911,207.54633 L1676.50605,210.62101 L1681.10454,213.735683 L1685.69305,216.882909 L1690.28707,220.073597 L1695.20779,223.534655 L1701.34908,227.917166 L1707.50655,232.395743 L1861.37565,345.87043 C2027.85233,468.642893 2145.92096,638.838827 2206.47331,828.004149 C2256.74323,985.047194 2267.30881,1155.14953 2233.1311,1322.04724 L2233.1311,1322.04724 L2232.09655,1327.03401 L2231.02566,1332.06363 L2229.91772,1337.13564 L2228.77206,1342.24948 L2227.58806,1347.40437 L2226.36512,1352.59935 L2225.10275,1357.83314 L2223.80056,1363.10409 L2222.45833,1368.41003 L2221.07604,1373.74802 L2219.65406,1379.11405 L2218.19327,1384.50241 L2216.69548,1389.90462 L2215.1641,1395.30726 L2213.59679,1400.71792 L2211.88441,1406.50362 L2209.67988,1413.7735 L2207.38641,1421.10169 L2148.61364,1604.70759 C2085.02521,1803.3576 1962.04411,1969.93071 1803.51599,2086.84131 C1671.79136,2183.98499 1515.51815,2246.77472 1348.41385,2265.29285 L1348.41385,2265.29285 L1343.41678,2265.83325 L1338.36829,2266.35172 L1333.26858,2266.84747 L1328.118,2267.31966 L1322.91704,2267.76744 L1317.66647,2268.18994 L1312.36731,2268.5863 L1307.02099,2268.95562 L1301.62949,2269.29701 L1296.19555,2269.60957 L1290.72305,2269.89239 L1285.21763,2270.14457 L1279.68779,2270.36524 L1274.1472,2270.55354 L1268.60932,2270.70898 L1262.76106,2270.83853 L1255.44395,2270.95158 L1248.03203,2271 L1057.89842,2271 C852.121935,2271 658.046801,2203.75191 499.518681,2086.84131 C367.715722,1989.63986 260.544022,1858.08335 191.559776,1702.36721 L191.559776,1702.36721 L189.509421,1697.70656 L187.463746,1692.98945 L185.423577,1688.21583 L183.389801,1683.38577 L181.36337,1678.4995 L179.345323,1673.55748 L177.336802,1668.56044 L175.339082,1663.50947 L173.353615,1658.40623 L171.382096,1653.25307 L169.426569,1648.05347 L167.489618,1642.81259 L165.574697,1637.53839 L163.68682,1632.24379 L161.834095,1626.95158 L159.923293,1621.39149 L157.591302,1614.46068 L155.298333,1607.4483 L96.5613528,1423.9542 C32.9729216,1225.30418 36.008999,1017.16947 96.5613528,828.004149 C146.875684,670.82237 236.943622,526.787099 361.410525,412.106146 L361.410525,412.106146 L365.140312,408.687554 L368.924387,405.256015 L372.763062,401.812307 L376.656544,398.357304 L380.604907,394.892001 L384.60805,391.417535 L388.665642,387.935235 L392.77704,384.446672 L396.941166,380.953749 L401.156322,377.458835 L405.419895,373.964973 L409.727846,370.47625 L414.073794,366.998459 L418.44719,363.540431 L422.837416,360.11062 L427.493736,356.51656 L433.347935,352.059491 L439.316273,347.598142 L593.137592,234.158694 C759.614266,111.386231 955.5658,50 1151.51733,50 L1151.51733,50 Z" id="path-5"></path>
        <filter x="-10.3%" y="-10.1%" width="120.5%" height="120.4%" filterUnits="objectBoundingBox" id="filter-6">
            <feOffset dx="0" dy="2" in="SourceAlpha" result="shadowOffsetOuter1"></feOffset>
            <feGaussianBlur stdDeviation="75" in="shadowOffsetOuter1" result="shadowBlurOuter1"></feGaussianBlur>
            <feColorMatrix values="0 0 0 0 0   0 0 0 0 0   0 0 0 0 0  0 0 0 0.603214291 0" type="matrix" in="shadowBlurOuter1"></feColorMatrix>
        </filter>
        <linearGradient x1="50%" y1="0%" x2="50%" y2="100%" id="linearGradient-7">
            <stop stop-color="#20404E" offset="0%"></stop>
            <stop stop-color="#091216" offset="100%"></stop>
        </linearGradient>
        <path d="M1151.516,101 C1307.14789,101 1462.74858,141.917459 1601.92965,223.600884 L1601.92965,223.600884 L1606.08082,226.051934 L1610.25881,228.549274 L1614.46291,231.093349 L1618.69224,233.684515 L1622.94577,236.323012 L1627.22223,239.008923 L1631.52001,241.742118 L1635.83713,244.522165 L1640.17097,247.348205 L1644.51806,250.218737 L1648.8736,253.131266 L1653.23057,256.081656 L1657.57805,259.062854 L1661.9302,262.084845 L1666.59009,265.361675 L1672.40862,269.512888 L1678.24994,273.760507 L1831.98632,387.110604 C1989.70116,503.394021 2101.55572,664.594377 2158.92114,843.761509 C2207.01889,993.983281 2216.75235,1156.82168 2183.19761,1316.40796 L2183.19761,1316.40796 L2182.18296,1321.1723 L2181.1332,1325.97683 L2180.0477,1330.821 L2178.92586,1335.70408 L2177.76713,1340.62514 L2176.57104,1345.58298 L2175.33722,1350.57602 L2174.06546,1355.60219 L2172.75575,1360.65872 L2171.40843,1365.74179 L2170.02436,1370.84598 L2168.60523,1375.96326 L2167.1543,1381.08088 L2165.66946,1386.20563 L2164.04793,1391.68306 L2161.95922,1398.56939 L2159.78351,1405.51966 L2101.06144,1588.92397 C2040.81973,1777.07449 1924.31124,1934.8435 1774.12662,2045.57488 C1648.09385,2138.49905 1498.34004,2198.23692 1338.25059,2215.10573 L1338.25059,2215.10573 L1333.46724,2215.59687 L1328.63533,2216.06647 L1323.7552,2216.51376 L1318.82733,2216.93793 L1313.85242,2217.33816 L1308.83147,2217.71362 L1303.76584,2218.06347 L1298.65741,2218.38686 L1293.50878,2218.68293 L1288.32363,2218.95084 L1283.10731,2219.18972 L1277.86791,2219.39875 L1272.61836,2219.57712 L1267.37159,2219.72435 L1261.83385,2219.84699 L1254.90132,2219.95408 L1247.86988,2220 L1057.89704,2220 C862.950776,2220 679.090013,2156.30625 528.905388,2045.57488 C402.797684,1952.59545 300.489262,1826.42746 235.215173,1677.01481 L235.215173,1677.01481 L233.276933,1672.54649 L231.3439,1668.02462 L229.416913,1663.44925 L227.49688,1658.82063 L225.584785,1654.13918 L223.681714,1649.4056 L221.788876,1644.62094 L219.907649,1639.78677 L218.039642,1634.90532 L216.186796,1629.9799 L214.35156,1625.0154 L212.537213,1620.01939 L210.748505,1615.00409 L208.993121,1609.99112 L207.183812,1604.72759 L204.974374,1598.16256 L202.799141,1591.51182 L144.110866,1408.21307 C83.8691581,1220.06255 86.7454437,1022.92864 144.110866,843.761509 C192.251099,693.40704 278.803825,555.751497 398.548366,446.612645 L398.548366,446.612645 L402.133709,443.362091 L405.770802,440.099992 L409.459842,436.827179 L413.200894,433.544597 L416.99386,430.253326 L420.838423,426.954629 L424.733968,423.649998 L428.679469,420.341241 L432.673311,417.030605 L436.713011,413.72098 L440.794735,410.416242 L444.91243,407.121885 L449.056092,403.846278 L453.215541,400.597525 L457.624632,397.195094 L463.171139,392.97328 L468.833097,388.741949 L622.524356,275.425124 C780.239194,159.141708 965.877599,101 1151.516,101 L1151.516,101 Z" id="path-8"></path>
        <filter x="-10.7%" y="-10.6%" width="121.5%" height="121.3%" filterUnits="objectBoundingBox" id="filter-9">
            <feOffset dx="0" dy="2" in="SourceAlpha" result="shadowOffsetOuter1"></feOffset>
            <feGaussianBlur stdDeviation="75" in="shadowOffsetOuter1" result="shadowBlurOuter1"></feGaussianBlur>
            <feColorMatrix values="0 0 0 0 0   0 0 0 0 0   0 0 0 0 0  0 0 0 0.603214291 0" type="matrix" in="shadowBlurOuter1"></feColorMatrix>
        </filter>
        <linearGradient x1="50%" y1="0%" x2="50%" y2="100%" id="linearGradient-10">
            <stop stop-color="#20404E" offset="0%"></stop>
            <stop stop-color="#091216" offset="100%"></stop>
        </linearGradient>
        <path d="M1151.51471,151 C1299.96086,151 1448.37797,190.42332 1580.81985,269.128585 L1580.81985,269.128585 L1584.76628,271.488068 L1588.73738,273.891719 L1592.73234,276.339872 L1596.75017,278.83275 L1600.78966,281.37043 L1604.8493,283.952785 L1608.9272,286.579405 L1613.02088,289.249472 L1617.12706,291.961562 L1621.2412,294.713314 L1625.35665,297.500813 L1629.46309,300.31739 L1633.57337,303.17211 L1637.97243,306.266259 L1643.46822,310.188132 L1648.99337,314.206798 L1802.59706,427.485807 C1951.55006,537.335053 2057.19055,689.615902 2111.36904,858.869394 C2157.24605,1002.18907 2166.16873,1157.66564 2133.34033,1309.85679 L2133.34033,1309.85679 L2132.34875,1314.3961 L2131.32341,1318.97289 L2130.26374,1323.58646 L2129.16922,1328.23593 L2128.03941,1332.92016 L2126.87396,1337.63764 L2125.67266,1342.38643 L2124.43553,1347.16388 L2123.16288,1351.96638 L2121.85552,1356.78881 L2120.51506,1361.62356 L2119.14456,1366.4586 L2117.7422,1371.29984 L2116.21152,1376.4716 L2114.23864,1382.97762 L2112.18069,1389.55326 L2053.5093,1572.84255 C1996.61431,1750.58236 1886.57845,1899.62172 1744.73731,2004.22613 C1624.52366,2092.8808 1481.45974,2149.56161 1328.56624,2164.83993 L1328.56624,2164.83993 L1324.00213,2165.28362 L1319.39245,2165.70622 L1314.73766,2166.10697 L1310.03842,2166.48511 L1305.29569,2166.83985 L1300.51074,2167.17039 L1295.68537,2167.47594 L1290.82205,2167.75567 L1285.92425,2168.00879 L1280.99705,2168.23449 L1276.04808,2168.43197 L1271.08957,2168.6005 L1266.13391,2168.73959 L1260.90668,2168.85539 L1254.35873,2168.95655 L1247.70778,2169 L1057.89568,2169 C873.779639,2169 700.133243,2108.83054 558.29211,2004.22613 C438.00699,1915.51876 340.645838,1794.83413 279.090127,1651.84519 L279.090127,1651.84519 L277.264229,1647.57292 L275.444033,1643.2501 L273.630398,1638.87693 L271.824255,1634.45385 L270.026633,1629.9815 L268.238676,1625.46089 L266.46169,1620.8935 L264.697195,1616.28146 L262.94703,1611.62789 L261.21351,1606.93744 L259.499735,1602.21725 L257.810196,1597.47889 L256.152153,1592.74278 L254.444336,1587.77333 L252.357453,1581.571 L250.299956,1575.27874 L191.66038,1392.08883 C134.765394,1214.34902 137.481888,1028.12289 191.66038,858.869394 C237.577908,715.423133 320.496825,584.211093 435.343037,480.629741 L435.343037,480.629741 L438.77855,477.547712 L442.263146,474.455545 L445.796888,471.354134 L449.379678,468.244506 L453.011212,465.127855 L456.690904,462.005597 L460.41778,458.879444 L464.190308,455.751524 L468.006135,452.624573 L471.861633,449.502261 L475.751074,446.389783 L479.665003,443.295051 L483.593674,440.225823 L487.755536,437.013417 L492.994352,433.024865 L498.349929,429.021555 L651.911142,315.773868 C800.864148,205.924623 976.18943,151 1151.51471,151 Z" id="path-11"></path>
        <filter x="-11.3%" y="-11.1%" width="122.6%" height="122.4%" filterUnits="objectBoundingBox" id="filter-12">
            <feOffset dx="0" dy="2" in="SourceAlpha" result="shadowOffsetOuter1"></feOffset>
            <feGaussianBlur stdDeviation="75" in="shadowOffsetOuter1" result="shadowBlurOuter1"></feGaussianBlur>
            <feColorMatrix values="0 0 0 0 0   0 0 0 0 0   0 0 0 0 0  0 0 0 0.603214291 0" type="matrix" in="shadowBlurOuter1"></feColorMatrix>
        </filter>
        <linearGradient x1="50%" y1="0%" x2="50%" y2="100%" id="linearGradient-13">
            <stop stop-color="#20404E" offset="0%"></stop>
            <stop stop-color="#091216" offset="100%"></stop>
        </linearGradient>
        <path d="M1151.51346,202 C1292.61438,202 1433.68845,239.832728 1559.27379,315.367179 L1559.27379,315.367179 L1563.01191,317.629215 L1566.7725,319.933141 L1570.55462,322.279167 L1574.35715,324.667359 L1578.17865,327.097596 L1582.01732,329.569487 L1585.87084,332.082257 L1589.73612,334.634563 L1593.60884,337.224174 L1597.48277,339.847401 L1601.34818,342.497963 L1605.21659,345.183997 L1609.35483,348.093933 L1614.52787,351.784524 L1619.73686,355.572245 L1773.20786,468.723904 C1913.39904,572.084565 2012.82546,715.370476 2063.81702,874.626489 C2107.424,1010.81908 2115.5587,1158.67908 2083.56439,1303.23895 L2083.56439,1303.23895 L2082.5992,1307.54608 L2081.6017,1311.88786 L2080.57139,1316.26343 L2079.50785,1320.67172 L2078.41077,1325.11132 L2077.27994,1329.58036 L2076.11539,1334.07637 L2074.9174,1338.59593 L2073.68675,1343.13421 L2072.42496,1347.68404 L2071.13491,1352.23409 L2069.81502,1356.78943 L2068.3752,1361.65296 L2066.51813,1367.77544 L2064.57794,1373.97319 L2005.95723,1557.05642 C1952.40897,1724.29749 1848.84571,1864.53338 1715.34807,1962.95901 C1601.08269,2047.205 1464.88243,2100.7678 1319.36898,2114.5026 L1319.36898,2114.5026 L1315.02975,2114.9003 L1310.64804,2115.27745 L1306.22447,2115.63331 L1301.75995,2115.96716 L1297.25569,2116.27823 L1292.71339,2116.56577 L1288.13537,2116.82903 L1283.52492,2117.06723 L1278.88683,2117.27963 L1274.22829,2117.46548 L1269.56083,2117.62407 L1264.89627,2117.75496 L1259.97956,2117.86385 L1253.81619,2117.95905 L1247.54572,2118 L1057.89435,2118 C884.608526,2118 721.176492,2061.38464 587.678848,1962.95901 C473.345545,1878.66294 381.016194,1763.67917 323.184567,1627.37951 L323.184567,1627.37951 L321.471161,1623.31136 L319.763923,1619.19583 L318.063733,1615.03329 L316.37156,1610.82439 L314.688485,1606.57007 L313.015738,1602.27173 L311.354756,1597.93138 L309.707271,1593.55198 L308.075467,1589.1379 L306.462265,1584.69586 L304.871895,1580.23679 L303.311194,1575.7799 L301.704869,1571.10699 L299.740539,1565.27041 L297.800779,1559.33976 L239.209895,1376.34968 C185.66163,1209.10861 188.218332,1033.8825 239.209895,874.626489 C282.855385,738.31361 362.018951,613.740345 471.786304,515.833527 L471.786304,515.833527 L475.066459,512.923537 L478.39289,510.004835 L481.765504,507.078389 L485.184008,504.145328 L488.647848,501.206989 L492.156099,498.264989 L495.707313,495.321335 L499.299268,492.378608 L502.928538,489.440267 L506.589726,486.51121 L510.273922,483.598887 L513.971815,480.710704 L517.886449,477.689913 L522.817574,473.936599 L527.866771,470.163293 L681.297955,357.040991 C821.489132,253.68033 986.501295,202 1151.51346,202 L1151.51346,202 Z" id="path-14"></path>
        <filter x="-11.9%" y="-11.7%" width="123.8%" height="123.6%" filterUnits="objectBoundingBox" id="filter-15">
            <feOffset dx="0" dy="2" in="SourceAlpha" result="shadowOffsetOuter1"></feOffset>
            <feGaussianBlur stdDeviation="75" in="shadowOffsetOuter1" result="shadowBlurOuter1"></feGaussianBlur>
            <feColorMatrix values="0 0 0 0 0   0 0 0 0 0   0 0 0 0 0  0 0 0 0.603214291 0" type="matrix" in="shadowBlurOuter1"></feColorMatrix>
        </filter>
        <linearGradient x1="50%" y1="0%" x2="50%" y2="100%" id="linearGradient-16">
            <stop stop-color="#20404E" offset="0%"></stop>
            <stop stop-color="#091216" offset="100%"></stop>
        </linearGradient>
        <path d="M1151.51225,253 C1285.10608,253 1418.67526,289.182538 1537.28648,361.427058 L1537.28648,361.427058 L1540.8127,363.587961 L1544.35913,365.788357 L1547.92469,368.028308 L1551.50804,370.307695 L1555.1075,372.626146 L1558.72086,374.982932 L1562.34522,377.376785 L1565.97654,379.805607 L1569.60895,382.265933 L1573.23332,384.751862 L1576.85986,387.270611 L1580.73728,389.997854 L1585.58757,393.459088 L1590.48039,397.017841 L1743.81873,510.101219 C1875.24809,607.027239 1968.46045,741.392994 2016.26508,890.734642 C2057.552,1019.71497 2064.92306,1159.85478 2033.87507,1296.69628 L2033.87507,1296.69628 L2032.93974,1300.76852 L2031.97363,1304.87248 L2030.97637,1309.00714 L2029.94766,1313.17116 L2028.8873,1317.36279 L2027.79533,1321.5797 L2026.67201,1325.81868 L2025.51807,1330.07519 L2024.33494,1334.34247 L2023.12534,1338.6099 L2021.88792,1342.88172 L2020.53895,1347.43955 L2018.7977,1353.1817 L2016.97527,1359.0048 L1958.40524,1541.97755 C1908.20369,1698.80714 1811.11305,1830.31275 1685.95889,1922.61097 C1577.77286,2002.39559 1448.61336,2052.83599 1310.66711,2065.09277 L1310.66711,2065.09277 L1306.55847,2065.4465 L1302.41058,2065.78028 L1298.22427,2066.0934 L1294.0007,2066.38516 L1289.74146,2066.65486 L1285.44874,2066.90177 L1281.12565,2067.12519 L1276.77667,2067.3244 L1272.40856,2067.49871 L1268.03215,2067.64745 L1263.65869,2067.7702 L1259.05249,2067.87224 L1253.27371,2067.96153 L1247.38372,2068 L1057.89305,2068 C895.437437,2068 742.219761,2014.90918 617.065602,1922.61097 C508.815268,1842.77892 421.60277,1733.59712 367.498299,1604.11446 L367.498299,1604.11446 L365.897459,1600.2544 L364.303221,1596.35024 L362.716497,1592.40259 L361.138303,1588.41234 L359.569796,1584.3808 L358.012327,1580.30988 L356.467522,1576.20236 L354.937433,1572.06234 L353.424804,1567.89615 L351.933603,1563.71404 L350.470243,1559.53402 L348.96541,1555.15522 L347.123634,1549.68136 L345.301611,1544.10922 L286.759411,1361.22343 C236.557866,1204.39383 238.954776,1040.07629 286.759411,890.734642 C328.082796,761.640414 403.366467,643.772737 507.869778,551.553816 L507.869778,551.553816 L510.988899,548.816298 L514.151336,546.071508 L517.356812,543.320507 L520.6048,540.564553 L523.894426,537.80517 L527.224326,535.044245 L530.592408,532.284207 L533.995452,529.528304 L537.428387,526.781139 L540.882849,524.049705 L544.349965,521.341059 L548.01737,518.510308 L552.640804,514.990273 L557.383621,511.445001 L710.684797,398.389031 C842.114149,301.46301 996.813197,253 1151.51225,253 Z" id="path-17"></path>
        <filter x="-12.5%" y="-12.3%" width="125.1%" height="124.9%" filterUnits="objectBoundingBox" id="filter-18">
            <feOffset dx="0" dy="2" in="SourceAlpha" result="shadowOffsetOuter1"></feOffset>
            <feGaussianBlur stdDeviation="75" in="shadowOffsetOuter1" result="shadowBlurOuter1"></feGaussianBlur>
            <feColorMatrix values="0 0 0 0 0   0 0 0 0 0   0 0 0 0 0  0 0 0 0.603214291 0" type="matrix" in="shadowBlurOuter1"></feColorMatrix>
        </filter>
        <linearGradient x1="50%" y1="0%" x2="50%" y2="100%" id="linearGradient-19">
            <stop stop-color="#20404E" offset="0%"></stop>
            <stop stop-color="#091216" offset="100%"></stop>
        </linearGradient>
        <path d="M1151.51108,304 C1277.43358,304 1403.33364,338.430611 1514.85296,407.181883 L1514.85296,407.181883 L1518.16369,409.235439 L1521.49228,411.325916 L1524.83749,413.453197 L1528.19773,415.616933 L1531.57093,417.816436 L1534.95438,420.050518 L1538.3443,422.317214 L1541.73519,424.613282 L1545.11852,426.93321 L1548.50319,429.283289 L1552.11979,431.826335 L1556.64732,435.056307 L1561.22399,438.384133 L1714.42969,551.336747 C1837.09722,641.774754 1924.09552,767.146362 1968.71323,906.49141 C2007.62934,1028.02987 2014.26266,1160.18848 1984.27786,1289.07201 L1984.27786,1289.07201 L1983.37597,1292.9021 L1982.44499,1296.76085 L1981.48464,1300.647 L1980.49475,1304.55892 L1979.47535,1308.49441 L1978.4267,1312.45047 L1977.34948,1316.42284 L1976.24502,1320.40524 L1975.11585,1324.3877 L1973.96091,1328.37364 L1972.70279,1332.62327 L1971.07736,1337.98192 L1969.37269,1343.42716 L1910.85332,1526.18833 C1863.99849,1672.5201 1773.38046,1795.22301 1656.56978,1881.34299 C1554.59611,1956.52422 1432.65782,2003.78267 1302.46897,2014.61697 L1302.46897,2014.61697 L1298.59675,2014.92847 L1294.68865,2015.22069 L1290.74577,2015.49299 L1286.76959,2015.74469 L1282.76218,2015.97512 L1278.72644,2016.18363 L1274.66656,2016.36954 L1270.58889,2016.53222 L1266.50352,2016.67102 L1262.42117,2016.78557 L1258.12549,2016.8807 L1252.73128,2016.96402 L1247.22178,2017 L1057.89178,2017 C906.266372,2017 763.263051,1967.46297 646.452373,1881.34299 C544.418093,1806.11708 462.408004,1702.96189 412.031005,1580.57054 L412.031005,1580.57054 L410.542719,1576.92691 L409.061444,1573.24268 L407.588132,1569.5187 L406.123865,1565.75619 L404.669908,1561.95694 L403.227783,1558.12355 L401.79941,1554.25987 L400.387353,1550.37182 L398.995322,1546.46897 L397.629303,1542.56814 L396.225962,1538.48586 L394.50674,1533.37772 L392.802453,1528.16717 L334.308928,1345.48672 C287.454101,1199.15495 289.69122,1045.83646 334.308928,906.49141 C373.259405,784.845627 444.535575,673.881815 543.584915,587.464657 L543.584915,587.464657 L546.537176,584.903032 L549.529623,582.335606 L552.561758,579.763556 L555.632759,577.188309 L558.741346,574.611634 L561.885555,572.035803 L565.062373,569.463857 L568.267055,566.900096 L571.491784,564.351055 L574.728123,561.823439 L578.148299,559.184285 L582.464042,555.899467 L586.90048,552.584182 L740.071672,439.65701 C862.739203,349.219003 1007.12514,304 1151.51108,304 L1151.51108,304 Z" id="path-20"></path>
        <filter x="-13.3%" y="-13.1%" width="126.5%" height="126.4%" filterUnits="objectBoundingBox" id="filter-21">
            <feOffset dx="0" dy="2" in="SourceAlpha" result="shadowOffsetOuter1"></feOffset>
            <feGaussianBlur stdDeviation="75" in="shadowOffsetOuter1" result="shadowBlurOuter1"></feGaussianBlur>
            <feColorMatrix values="0 0 0 0 0   0 0 0 0 0   0 0 0 0 0  0 0 0 0.603214291 0" type="matrix" in="shadowBlurOuter1"></feColorMatrix>
        </filter>
        <linearGradient x1="50%" y1="0%" x2="50%" y2="100%" id="linearGradient-22">
            <stop stop-color="#20404E" offset="0%"></stop>
            <stop stop-color="#091216" offset="100%"></stop>
        </linearGradient>
        <path d="M1151.50996,354 C1269.59448,354 1387.65878,386.61444 1491.9683,451.743951 L1491.9683,451.743951 L1495.05993,453.686173 L1498.167,455.662591 L1501.28801,457.672875 L1504.42106,459.71638 L1507.5636,461.791995 L1510.71211,463.897888 L1513.86148,466.031038 L1517.00378,468.186319 L1520.14658,470.369099 L1523.50235,472.729433 L1527.70714,475.730029 L1531.96764,478.828869 L1685.04073,591.716677 C1798.94645,675.719462 1879.73069,792.170108 1921.16147,921.599897 C1957.65527,1035.60655 1963.5784,1159.67413 1934.7784,1280.509 L1934.7784,1280.509 L1933.91369,1284.09409 L1933.02171,1287.70464 L1932.1023,1291.33912 L1931.15548,1294.99549 L1930.18149,1298.67094 L1929.18098,1302.36151 L1928.15518,1306.06134 L1927.10647,1309.76117 L1926.034,1313.46356 L1924.86673,1317.40745 L1923.35711,1322.38574 L1921.7702,1327.45629 L1863.30148,1510.1126 C1819.79337,1646.03196 1735.64795,1760.00381 1627.18075,1839.99582 C1531.55438,1910.51802 1417.0212,1954.59096 1294.78298,1964.07545 L1294.78298,1964.07545 L1291.1531,1964.34695 L1287.4909,1964.59993 L1283.79779,1964.83378 L1280.07568,1965.04788 L1276.32729,1965.24159 L1272.55653,1965.41432 L1268.76928,1965.56545 L1264.97496,1965.6944 L1261.18372,1965.80081 L1257.19855,1965.8891 L1252.18893,1965.9665 L1247.05991,1966 L1057.89054,1966 C917.095334,1966 784.306362,1919.98783 675.839164,1839.99582 C580.155964,1769.43171 503.434324,1672.41096 456.782231,1557.2467 L456.782231,1557.2467 L455.406404,1553.82374 L454.037973,1550.36384 L452.677946,1546.86816 L451.327502,1543.33836 L449.988057,1539.77687 L448.6614,1536.18728 L447.349916,1532.5751 L446.057053,1528.94923 L444.788375,1525.32532 L443.486527,1521.53716 L441.889858,1516.79177 L440.303307,1511.93976 L381.858446,1329.35798 C338.350335,1193.43862 340.427663,1051.02969 381.858446,921.599897 C418.384469,807.492581 485.522414,703.502783 578.923022,622.898553 L578.923022,622.898553 L581.70244,620.513202 L584.518723,618.123554 L587.3711,615.73094 L590.258372,613.337011 L593.178709,610.943884 L596.129301,608.554393 L599.10573,606.17254 L602.100726,603.804404 L605.106288,601.456342 L608.279236,599.007244 L612.287287,595.955727 L616.417346,592.868493 L769.458584,480.004178 C883.364296,396.001393 1017.43713,354 1151.50996,354 L1151.50996,354 Z" id="path-23"></path>
        <filter x="-14.1%" y="-13.9%" width="128.2%" height="128.0%" filterUnits="objectBoundingBox" id="filter-24">
            <feOffset dx="0" dy="2" in="SourceAlpha" result="shadowOffsetOuter1"></feOffset>
            <feGaussianBlur stdDeviation="75" in="shadowOffsetOuter1" result="shadowBlurOuter1"></feGaussianBlur>
            <feColorMatrix values="0 0 0 0 0   0 0 0 0 0   0 0 0 0 0  0 0 0 0.603214291 0" type="matrix" in="shadowBlurOuter1"></feColorMatrix>
        </filter>
        <linearGradient x1="50%" y1="0%" x2="50%" y2="100%" id="linearGradient-25">
            <stop stop-color="#20404E" offset="0%"></stop>
            <stop stop-color="#091216" offset="100%"></stop>
        </linearGradient>
        <path d="M1151.50889,405 C1261.58638,405 1371.64584,435.69113 1468.62764,496.984641 L1468.62764,496.984641 L1471.49656,498.808971 L1474.37836,500.664556 L1477.27125,502.550795 L1480.17288,504.466657 L1483.07998,506.410441 L1485.98783,508.379353 L1488.88909,510.36865 L1491.79003,512.382778 L1494.88498,514.558938 L1498.76701,517.328296 L1502.71135,520.196231 L1655.65188,632.94895 C1760.79577,710.464445 1835.36595,817.921946 1873.60981,937.35625 C1907.62906,1043.59722 1912.87121,1159.30679 1885.3825,1271.8505 L1885.3825,1271.8505 L1884.55889,1275.18322 L1883.70995,1278.53802 L1882.8357,1281.913 L1881.93638,1285.30556 L1881.01258,1288.71204 L1880.06545,1292.127 L1879.09718,1295.5419 L1878.10718,1298.95844 L1877.03077,1302.59417 L1875.63697,1307.189 L1874.16782,1311.88173 L1815.74974,1494.31946 C1775.58834,1619.74216 1697.91552,1724.9123 1597.7918,1798.72676 C1508.64963,1864.44526 1401.70891,1905.27485 1287.61762,1913.47423 L1287.61762,1913.47423 L1284.23611,1913.70775 L1280.82606,1913.9236 L1277.38926,1914.12122 L1273.92822,1914.30003 L1270.44657,1914.45945 L1266.94976,1914.59895 L1263.44648,1914.71797 L1259.94634,1914.81618 L1256.27169,1914.89756 L1251.64664,1914.96899 L1246.89811,1915 L1057.88932,1915 C927.92432,1915 805.349696,1872.54122 705.225974,1798.72676 C616.030834,1732.9692 544.684147,1642.3146 501.751379,1534.66028 L501.751379,1534.66028 L500.487829,1531.46662 L499.232043,1528.23993 L497.98511,1524.98177 L496.748346,1521.69439 L495.523405,1518.38111 L494.312493,1515.04704 L493.118799,1511.7004 L491.947462,1508.35564 L490.747106,1504.86397 L489.27299,1500.48426 L487.804176,1495.9938 L429.407965,1313.62437 C389.24657,1188.20166 391.164106,1056.79055 429.407965,937.35625 C463.457243,831.021483 526.323065,734.206612 613.875263,659.525291 L613.875263,659.525291 L616.475693,657.319526 L619.109445,655.111029 L621.775404,652.901329 L624.471869,650.69239 L627.196234,648.486835 L629.944411,646.288366 L632.709674,644.102603 L635.484458,641.93555 L638.410178,639.678028 L642.110538,636.861702 L645.934217,634.004434 L798.845539,521.273242 C903.989435,443.757747 1027.74916,405 1151.50889,405 L1151.50889,405 Z" id="path-26"></path>
        <filter x="-15.0%" y="-14.8%" width="130.1%" height="129.9%" filterUnits="objectBoundingBox" id="filter-27">
            <feOffset dx="0" dy="2" in="SourceAlpha" result="shadowOffsetOuter1"></feOffset>
            <feGaussianBlur stdDeviation="75" in="shadowOffsetOuter1" result="shadowBlurOuter1"></feGaussianBlur>
            <feColorMatrix values="0 0 0 0 0   0 0 0 0 0   0 0 0 0 0  0 0 0 0.603214291 0" type="matrix" in="shadowBlurOuter1"></feColorMatrix>
        </filter>
        <linearGradient x1="50%" y1="0%" x2="50%" y2="100%" id="linearGradient-28">
            <stop stop-color="#20404E" offset="0%"></stop>
            <stop stop-color="#091216" offset="100%"></stop>
        </linearGradient>
        <path d="M1151.50787,456 C1253.40687,456 1355.29,484.698585 1444.82619,542.01747 L1444.82619,542.01747 L1447.46876,543.719585 L1450.1215,545.449808 L1452.78221,547.207185 L1455.44791,548.990148 L1458.11424,550.796124 L1460.77447,552.620755 L1463.43354,554.467565 L1466.26766,556.460991 L1469.82694,559.000947 L1473.45513,561.639875 L1626.26312,674.332203 C1722.6452,745.411738 1791.00133,843.947253 1826.05826,953.46516 C1857.54996,1051.84525 1862.14205,1159.08016 1836.09617,1263.23806 L1836.09617,1263.23806 L1835.3177,1266.3154 L1834.51603,1269.41122 L1833.69138,1272.52315 L1832.84429,1275.64778 L1831.97583,1278.78014 L1831.088,1281.91237 L1830.18048,1285.04533 L1829.19491,1288.3753 L1827.91693,1292.58971 L1826.56554,1296.90772 L1768.19808,1479.24774 C1731.3834,1594.25684 1660.18319,1690.69491 1568.40294,1758.3807 C1485.88383,1819.23661 1386.7264,1856.82006 1280.9814,1863.81471 L1280.9814,1863.81471 L1277.85442,1864.01271 L1274.70292,1864.19398 L1271.52923,1864.35799 L1268.33669,1864.50423 L1265.13031,1864.63218 L1261.91808,1864.74136 L1258.70904,1864.83142 L1255.3449,1864.90595 L1251.10444,1864.97147 L1246.73639,1865 L1057.88814,1865 C938.753331,1865 826.393053,1826.06649 734.612805,1758.3807 C652.044664,1697.48862 586.159869,1613.31528 546.937704,1513.31542 L546.937704,1513.31542 L545.786157,1510.35559 L544.642737,1507.36692 L543.508653,1504.35146 L542.385427,1501.31231 L541.275087,1498.25413 L540.180562,1495.18451 L539.106567,1492.11669 L538.007703,1488.91919 L536.656141,1484.90226 L535.305062,1480.77038 L476.957484,1298.49247 C440.142804,1183.48337 441.900549,1062.98307 476.957484,953.46516 C508.476979,854.99822 566.933555,765.43216 648.432667,696.682617 L648.432667,696.682617 L650.847794,694.656773 L653.29244,692.62984 L655.765032,690.603626 L658.263171,688.580546 L660.783095,686.564005 L663.318625,684.559168 L665.862632,682.57169 L668.541123,680.504247 L671.933793,677.921248 L675.451093,675.292053 L828.232542,562.619302 C924.614624,491.539767 1038.06125,456 1151.50787,456 L1151.50787,456 Z" id="path-29"></path>
        <filter x="-16.1%" y="-15.9%" width="132.2%" height="132.1%" filterUnits="objectBoundingBox" id="filter-30">
            <feOffset dx="0" dy="2" in="SourceAlpha" result="shadowOffsetOuter1"></feOffset>
            <feGaussianBlur stdDeviation="75" in="shadowOffsetOuter1" result="shadowBlurOuter1"></feGaussianBlur>
            <feColorMatrix values="0 0 0 0 0   0 0 0 0 0   0 0 0 0 0  0 0 0 0.603214291 0" type="matrix" in="shadowBlurOuter1"></feColorMatrix>
        </filter>
        <linearGradient x1="50%" y1="0%" x2="50%" y2="100%" id="linearGradient-31">
            <stop stop-color="#20404E" offset="0%"></stop>
            <stop stop-color="#091216" offset="100%"></stop>
        </linearGradient>
        <path d="M1151.50692,507 C1245.05353,507 1338.58639,533.593457 1420.55923,586.712436 L1420.55923,586.712436 L1422.9718,588.285417 L1425.39161,589.883063 L1427.8159,591.503941 L1430.24071,593.145702 L1432.6599,594.804373 L1435.07711,596.482556 L1437.65041,598.291835 L1440.88693,600.600588 L1444.19896,603.008638 L1596.87448,715.560215 C1684.49475,780.153407 1746.63682,869.69709 1778.50683,969.220971 C1807.41724,1059.50257 1811.39197,1157.99041 1786.92557,1253.51792 L1786.92557,1253.51792 L1786.19648,1256.3324 L1785.4465,1259.16147 L1784.67612,1262.00206 L1783.88632,1264.8496 L1783.07894,1267.69693 L1782.25389,1270.54409 L1781.35917,1273.56593 L1780.19701,1277.39695 L1778.96338,1281.33718 L1720.64652,1463.44946 C1687.17856,1567.96344 1622.45095,1655.60107 1539.01417,1717.11021 C1463.25894,1772.95657 1372.07917,1807.23814 1274.88287,1813.10251 L1274.88287,1813.10251 L1272.01668,1813.26731 L1269.13034,1813.41642 L1266.2269,1813.54936 L1263.31095,1813.66568 L1260.38977,1813.76492 L1257.47184,1813.84679 L1254.41822,1813.91441 L1250.56233,1813.97396 L1246.57477,1814 L1057.88697,1814 C949.582365,1814 847.436432,1778.61935 763.999659,1717.11021 C688.199409,1661.23068 627.863859,1583.77705 592.340293,1491.72264 L592.340293,1491.72264 L591.300385,1489.00556 L590.268981,1486.26418 L589.247471,1483.50129 L588.237704,1480.72119 L587.242347,1477.93075 L586.265693,1475.14205 L585.268321,1472.24098 L584.039313,1468.58969 L582.80597,1464.81931 L524.507003,1282.76291 C491.039039,1178.24893 492.636992,1068.74485 524.507003,969.220971 C553.44293,878.859669 607.349865,796.745408 682.586144,734.03287 L682.586144,734.03287 L684.809476,732.19014 L687.058196,730.348087 L689.330109,728.508916 L691.62178,726.675734 L693.927577,724.853243 L696.240807,723.046748 L698.67207,721.170851 L701.757049,718.823009 L704.96797,716.423752 L857.619603,603.889787 C945.239871,539.296596 1048.37339,507 1151.50692,507 Z" id="path-32"></path>
        <filter x="-17.3%" y="-17.1%" width="134.7%" height="134.6%" filterUnits="objectBoundingBox" id="filter-33">
            <feOffset dx="0" dy="2" in="SourceAlpha" result="shadowOffsetOuter1"></feOffset>
            <feGaussianBlur stdDeviation="75" in="shadowOffsetOuter1" result="shadowBlurOuter1"></feGaussianBlur>
            <feColorMatrix values="0 0 0 0 0   0 0 0 0 0   0 0 0 0 0  0 0 0 0.603214291 0" type="matrix" in="shadowBlurOuter1"></feColorMatrix>
        </filter>
        <linearGradient x1="50%" y1="0%" x2="50%" y2="100%" id="linearGradient-34">
            <stop stop-color="#20404E" offset="0%"></stop>
            <stop stop-color="#091216" offset="100%"></stop>
        </linearGradient>
        <path d="M1151.50602,557 C1236.52396,557 1321.53021,581.413701 1395.82217,630.183208 L1395.82217,630.183208 L1398.00106,631.622346 L1400.18395,633.082379 L1402.36724,634.56118 L1404.54539,636.055162 L1406.72073,637.566001 L1409.03321,639.192518 L1411.94698,641.271834 L1414.94285,643.450848 L1567.48597,755.94783 C1646.34442,814.104092 1702.27244,894.724446 1730.95552,984.330436 C1757.23016,1066.41242 1760.62204,1156.0289 1737.87705,1242.82687 L1737.87705,1242.82687 L1737.20173,1245.37526 L1736.50807,1247.93397 L1735.79694,1250.49886 L1735.07,1253.06348 L1734.32742,1255.62702 L1733.52356,1258.34305 L1732.47722,1261.79359 L1731.36135,1265.35906 L1673.09506,1447.383 C1642.97381,1541.48181 1584.71881,1620.38606 1509.62551,1675.76561 C1440.7769,1726.53984 1357.77271,1757.51743 1269.33054,1762.34008 L1269.33054,1762.34008 L1266.73155,1762.4744 L1264.11722,1762.59415 L1261.49171,1762.69892 L1258.86157,1762.78831 L1256.23474,1762.86204 L1253.49163,1762.9228 L1250.02033,1762.97644 L1246.41325,1763 L1057.88583,1763 C960.411419,1763 868.479833,1731.14515 793.386536,1675.76561 C724.497021,1624.9612 669.798444,1554.3505 637.958059,1470.39558 L637.958059,1470.39558 L637.029336,1467.92617 L636.109541,1465.43745 L635.200347,1462.93328 L634.304159,1460.4199 L633.424846,1457.90818 L632.528966,1455.30133 L631.422512,1452.01288 L630.306905,1448.60111 L572.056522,1266.62686 C541.935273,1172.52805 543.373435,1073.93643 572.056522,984.330436 C598.354351,902.175994 647.567941,827.591718 716.326508,770.922765 L716.326508,770.922765 L718.351356,769.263464 L720.397043,767.606795 L722.460461,765.955569 L724.536525,764.31403 L726.618978,762.687136 L728.803013,761.001349 L731.580301,758.886869 L734.484842,756.715714 L887.006731,644.234393 C965.865184,586.078131 1058.6856,557 1151.50602,557 L1151.50602,557 Z" id="path-35"></path>
        <filter x="-18.8%" y="-18.6%" width="137.6%" height="137.5%" filterUnits="objectBoundingBox" id="filter-36">
            <feOffset dx="0" dy="2" in="SourceAlpha" result="shadowOffsetOuter1"></feOffset>
            <feGaussianBlur stdDeviation="75" in="shadowOffsetOuter1" result="shadowBlurOuter1"></feGaussianBlur>
            <feColorMatrix values="0 0 0 0 0   0 0 0 0 0   0 0 0 0 0  0 0 0 0.603214291 0" type="matrix" in="shadowBlurOuter1"></feColorMatrix>
        </filter>
        <linearGradient x1="50%" y1="0%" x2="50%" y2="100%" id="linearGradient-37">
            <stop stop-color="#20404E" offset="0%"></stop>
            <stop stop-color="#091216" offset="100%"></stop>
        </linearGradient>
        <path d="M1151.50519,608 C1227.81579,608 1304.11667,630.116013 1370.61057,674.299884 L1370.61057,674.299884 L1372.55205,675.597864 L1374.49382,676.912482 L1376.43094,678.240536 L1378.3644,679.582781 L1380.41606,681.025191 L1383.00708,682.873349 L1385.68678,684.821524 L1538.0976,797.170024 C1608.19423,848.841236 1657.90819,920.471551 1683.40435,1000.08551 C1706.98799,1073.72747 1709.83337,1154.19568 1688.95711,1232.01865 L1688.95711,1232.01865 L1688.34015,1234.29336 L1687.70769,1236.57349 L1687.06119,1238.85328 L1686.40109,1241.13107 L1685.68808,1243.53904 L1684.75756,1246.60626 L1683.75945,1249.79401 L1625.5437,1431.5777 C1598.76916,1515.18348 1546.98677,1585.28905 1480.23695,1634.49318 C1418.43966,1680.0466 1343.8125,1707.66704 1264.33288,1711.53281 L1264.33288,1711.53281 L1262.00767,1711.63927 L1259.67258,1711.73241 L1257.33349,1711.81187 L1254.99777,1711.8774 L1252.56517,1711.93126 L1249.47844,1711.97893 L1246.25185,1712 L1057.88469,1712 C971.240488,1712 889.523254,1683.69731 822.773438,1634.49318 C760.93943,1588.9127 711.965893,1525.38946 683.789724,1449.83232 L683.789724,1449.83232 L682.971645,1447.61982 L682.163023,1445.39366 L681.366005,1443.15941 L680.584033,1440.92676 L679.789645,1438.61628 L678.805744,1435.69339 L677.807874,1432.64307 L619.606039,1250.90284 C592.831508,1167.29706 594.109878,1079.69946 619.606039,1000.08551 C643.210504,926.378534 687.583705,859.528408 749.644507,809.002401 L749.644507,809.002401 L751.463968,807.529606 L753.299132,806.061702 L755.145463,804.602473 L756.997139,803.156527 L758.933945,801.662245 L761.403543,799.782876 L764.001705,797.84162 L916.39394,685.506817 C986.490573,633.835606 1068.99788,608 1151.50519,608 L1151.50519,608 Z" id="path-38"></path>
        <filter x="-20.5%" y="-20.3%" width="141.0%" height="140.9%" filterUnits="objectBoundingBox" id="filter-39">
            <feOffset dx="0" dy="2" in="SourceAlpha" result="shadowOffsetOuter1"></feOffset>
            <feGaussianBlur stdDeviation="75" in="shadowOffsetOuter1" result="shadowBlurOuter1"></feGaussianBlur>
            <feColorMatrix values="0 0 0 0 0   0 0 0 0 0   0 0 0 0 0  0 0 0 0.603214291 0" type="matrix" in="shadowBlurOuter1"></feColorMatrix>
        </filter>
        <linearGradient x1="50%" y1="0%" x2="50%" y2="100%" id="linearGradient-40">
            <stop stop-color="#20404E" offset="0%"></stop>
            <stop stop-color="#091216" offset="100%"></stop>
        </linearGradient>
        <path d="M1151.50443,659 C1218.92667,659 1286.34108,678.737827 1344.92019,718.174563 L1344.92019,718.174563 L1346.62044,719.326188 L1348.31652,720.489519 L1350.00812,721.664386 L1351.79895,722.923993 L1354.06722,724.542667 L1356.43076,726.261767 L1508.70939,838.56362 C1570.0442,883.796573 1613.54408,946.501715 1635.85332,1016.19573 C1656.69003,1081.28962 1659.02714,1152.4765 1640.17238,1221.22 L1640.17238,1221.22 L1639.61858,1223.21743 L1639.05253,1225.21445 L1638.4749,1227.20856 L1637.85274,1229.31065 L1637.03804,1231.99732 L1636.15769,1234.81024 L1577.99243,1416.51846 C1554.56462,1489.70691 1509.25483,1551.0773 1450.84851,1594.15057 C1396.24911,1634.41632 1330.20398,1658.67796 1259.89825,1661.68406 L1259.89825,1661.68406 L1257.8536,1661.76566 L1255.80555,1661.83526 L1253.76093,1661.89265 L1251.63885,1661.93966 L1248.93671,1661.98141 L1246.0906,1662 L1057.88355,1662 C982.069564,1662 910.566692,1637.22384 852.160364,1594.15057 C797.528533,1553.8609 754.368394,1497.55738 729.833792,1430.56277 L729.833792,1430.56277 L729.125743,1428.61261 L728.427893,1426.65548 L727.743262,1424.69986 L727.050367,1422.68366 L726.18902,1420.12368 L725.308886,1417.43205 L667.155554,1235.7611 C643.727744,1162.57264 644.846322,1085.88975 667.155554,1016.19573 C688.010666,951.044385 727.393084,892.011748 782.530873,847.6332 L782.530873,847.6332 L784.137785,846.347288 L785.754382,845.069049 L787.375281,843.802741 L789.064858,842.498611 L791.226764,840.852651 L793.518546,839.139537 L945.781248,726.84943 C1007.11605,681.616477 1079.31024,659 1151.50443,659 L1151.50443,659 Z" id="path-41"></path>
        <filter x="-22.5%" y="-22.3%" width="145.1%" height="145.1%" filterUnits="objectBoundingBox" id="filter-42">
            <feOffset dx="0" dy="2" in="SourceAlpha" result="shadowOffsetOuter1"></feOffset>
            <feGaussianBlur stdDeviation="75" in="shadowOffsetOuter1" result="shadowBlurOuter1"></feGaussianBlur>
            <feColorMatrix values="0 0 0 0 0   0 0 0 0 0   0 0 0 0 0  0 0 0 0.603214291 0" type="matrix" in="shadowBlurOuter1"></feColorMatrix>
        </filter>
        <linearGradient x1="50%" y1="0%" x2="50%" y2="100%" id="linearGradient-43">
            <stop stop-color="#20404E" offset="0%"></stop>
            <stop stop-color="#091216" offset="100%"></stop>
        </linearGradient>
        <path d="M1151.50375,710 C1209.85435,710 1268.1989,727.236731 1318.74709,761.679985 L1318.74709,761.679985 L1320.20213,762.677435 L1321.65186,763.683758 L1323.18187,764.759313 L1325.12739,766.146895 L1327.17477,767.635211 L1479.32137,879.777394 C1531.89433,918.527168 1569.18014,972.244865 1588.30244,1031.94973 C1606.33558,1088.25398 1608.20457,1149.8799 1591.52963,1209.29955 L1591.52963,1209.29955 L1591.04402,1211.01182 L1590.54886,1212.72026 L1590.01756,1214.51439 L1589.31867,1216.81784 L1588.55608,1219.25314 L1530.44125,1400.703 C1510.36017,1463.40145 1471.52301,1515.9757 1421.46018,1552.87534 C1374.20711,1587.704 1316.95247,1608.55699 1256.03478,1610.79914 L1256.03478,1610.79914 L1254.27778,1610.85882 L1252.52427,1610.90801 L1250.71271,1610.94812 L1248.39514,1610.9839 L1245.92952,1611 L1057.88238,1611 C992.898632,1611 931.610141,1589.77498 881.547317,1552.87534 C834.266163,1518.02598 797.008009,1469.19151 776.088519,1411.06334 L776.088519,1411.06334 L775.489838,1409.38526 L774.902549,1407.70863 L774.311146,1405.98871 L773.572353,1403.79419 L772.809955,1401.46391 L714.705065,1220.04508 C694.623981,1157.34663 695.582768,1091.6546 714.705065,1031.94973 C732.754134,975.595768 766.992043,924.584438 814.976403,886.445324 L814.976403,886.445324 L816.363267,885.349343 L817.753388,884.26393 L819.195735,883.151247 L821.04995,881.740331 L823.035352,880.257061 L975.168683,768.124661 C1027.74164,729.374887 1089.6227,710 1151.50375,710 Z" id="path-44"></path>
        <filter x="-25.0%" y="-24.9%" width="150.1%" height="150.2%" filterUnits="objectBoundingBox" id="filter-45">
            <feOffset dx="0" dy="2" in="SourceAlpha" result="shadowOffsetOuter1"></feOffset>
            <feGaussianBlur stdDeviation="75" in="shadowOffsetOuter1" result="shadowBlurOuter1"></feGaussianBlur>
            <feColorMatrix values="0 0 0 0 0   0 0 0 0 0   0 0 0 0 0  0 0 0 0.603214291 0" type="matrix" in="shadowBlurOuter1"></feColorMatrix>
        </filter>
        <linearGradient x1="50%" y1="0%" x2="50%" y2="100%" id="linearGradient-46">
            <stop stop-color="#20404E" offset="0%"></stop>
            <stop stop-color="#091216" offset="100%"></stop>
        </linearGradient>
        <path d="M1151.50314,760 C1200.5967,760 1249.68582,774.64867 1292.08774,803.923789 L1292.08774,803.923789 L1293.2956,804.762683 L1294.56478,805.655378 L1296.18755,806.813409 L1297.91876,808.072592 L1449.93356,920.179696 C1493.74465,952.489277 1524.81637,997.279119 1540.75172,1047.06107 C1555.924,1094.45916 1557.36695,1146.38057 1543.03567,1196.36516 L1543.03567,1196.36516 L1542.62298,1197.78983 L1542.18253,1199.27799 L1541.59946,1201.20078 L1540.95464,1203.26115 L1482.89015,1384.65426 C1466.1558,1436.93226 1433.79129,1480.76869 1392.07199,1511.53563 C1352.31538,1540.85513 1304.06305,1558.29778 1252.75023,1559.88222 L1252.75023,1559.88222 L1251.28782,1559.92326 L1249.78678,1559.95651 L1247.85379,1559.98638 L1245.76866,1560 L1057.88116,1560 C1003.72767,1560 952.653591,1542.30256 910.934294,1511.53563 C871.154053,1482.1987 839.886612,1440.97606 822.55186,1391.89139 L822.55186,1391.89139 L822.061913,1390.49188 L821.572003,1389.06633 L820.955764,1387.23483 L820.311103,1385.26333 L762.254568,1203.89507 C745.520221,1151.61707 746.319215,1096.84301 762.254568,1047.06107 C777.440244,999.62111 806.376653,956.720933 846.972096,924.824346 L846.972096,924.824346 L848.131438,923.918625 L849.326555,922.996154 L850.873077,921.818717 L852.552099,920.563645 L1004.55628,808.464371 C1048.36737,776.15479 1099.93526,760 1151.50314,760 Z" id="path-47"></path>
        <filter x="-28.1%" y="-28.0%" width="156.3%" height="156.5%" filterUnits="objectBoundingBox" id="filter-48">
            <feOffset dx="0" dy="2" in="SourceAlpha" result="shadowOffsetOuter1"></feOffset>
            <feGaussianBlur stdDeviation="75" in="shadowOffsetOuter1" result="shadowBlurOuter1"></feGaussianBlur>
            <feColorMatrix values="0 0 0 0 0   0 0 0 0 0   0 0 0 0 0  0 0 0 0.603214291 0" type="matrix" in="shadowBlurOuter1"></feColorMatrix>
        </filter>
        <linearGradient x1="50%" y1="0%" x2="50%" y2="100%" id="linearGradient-49">
            <stop stop-color="#20404E" offset="0%"></stop>
            <stop stop-color="#091216" offset="100%"></stop>
        </linearGradient>
        <path d="M1151.50262,811 C1191.15181,811 1230.79799,822.93372 1264.93928,846.78614 L1264.93928,846.78614 L1265.94763,847.49487 L1267.24765,848.421913 L1268.6627,849.4504 L1420.54602,961.380198 C1455.5952,987.209548 1480.45279,1023.01603 1493.20118,1062.81337 C1505.45469,1101.06581 1506.5156,1143.00382 1494.69728,1183.3136 L1494.69728,1183.3136 L1494.34769,1184.49394 L1493.88044,1186.03369 L1493.35337,1187.71658 L1435.33911,1368.8228 C1421.95151,1410.61556 1396.05967,1445.65987 1362.68395,1470.25597 C1330.57549,1493.91817 1291.54041,1507.90508 1250.05165,1508.93861 L1250.05165,1508.93861 L1248.86112,1508.96497 L1247.31272,1508.98887 L1245.60808,1509 L1057.87982,1509 C1014.55665,1509 973.697026,1494.85208 940.321297,1470.25597 C908.193753,1446.57971 883.005771,1413.22021 869.221385,1373.48518 L869.221385,1373.48518 L868.832969,1372.35576 L868.339285,1370.88956 L867.812361,1369.27927 L809.80406,1188.19168 C796.416465,1146.39891 797.055666,1102.61072 809.80406,1062.81337 C822.068398,1024.52714 845.543199,989.938704 878.509394,964.366886 L878.509394,964.366886 L879.45728,963.63577 L880.696108,962.69327 L882.068748,961.667955 L1033.9441,849.744026 C1068.99328,823.914675 1110.24795,811 1151.50262,811 L1151.50262,811 Z" id="path-50"></path>
        <filter x="-32.1%" y="-32.1%" width="164.3%" height="164.8%" filterUnits="objectBoundingBox" id="filter-51">
            <feOffset dx="0" dy="2" in="SourceAlpha" result="shadowOffsetOuter1"></feOffset>
            <feGaussianBlur stdDeviation="75" in="shadowOffsetOuter1" result="shadowBlurOuter1"></feGaussianBlur>
            <feColorMatrix values="0 0 0 0 0   0 0 0 0 0   0 0 0 0 0  0 0 0 0.603214291 0" type="matrix" in="shadowBlurOuter1"></feColorMatrix>
        </filter>
        <linearGradient x1="50%" y1="0%" x2="50%" y2="100%" id="linearGradient-52">
            <stop stop-color="#20404E" offset="0%"></stop>
            <stop stop-color="#091216" offset="100%"></stop>
        </linearGradient>
        <path d="M1151.50218,862 C1181.52995,862 1211.55596,871.131793 1237.33035,889.386581 L1237.33035,889.386581 L1238.30761,890.083964 L1239.4065,890.883226 L1391.15881,1002.79635 C1417.44601,1022.18243 1436.08943,1049.0568 1445.65084,1078.92647 C1454.92993,1107.91419 1455.65234,1139.72209 1446.51303,1170.24479 L1446.51303,1170.24479 L1446.1616,1171.4037 L1445.7523,1172.71152 L1387.78807,1353.79076 C1377.74725,1385.15809 1358.32814,1411.4604 1333.29605,1429.92088 C1308.98636,1447.8486 1279.38283,1458.3774 1247.93585,1458.97337 L1247.93585,1458.97337 L1246.77203,1458.99135 L1245.44788,1459 L1057.87826,1459 C1025.3855,1459 994.740416,1448.38136 969.70832,1429.92088 C945.386477,1411.9842 926.366506,1386.64326 916.094098,1356.44968 L916.094098,1356.44968 L915.722969,1355.34667 L915.313783,1354.0953 L857.353533,1173.02848 C847.312717,1141.66114 847.792123,1108.79615 857.353533,1078.92647 C866.639009,1049.91881 884.491817,1023.73855 909.587847,1004.49427 L909.587847,1004.49427 L910.518979,1003.78536 L911.585235,1002.98833 L1063.33224,891.079119 C1089.61944,871.69304 1120.56081,862 1151.50218,862 L1151.50218,862 Z" id="path-53"></path>
        <filter x="-37.5%" y="-37.5%" width="175.0%" height="175.7%" filterUnits="objectBoundingBox" id="filter-54">
            <feOffset dx="0" dy="2" in="SourceAlpha" result="shadowOffsetOuter1"></feOffset>
            <feGaussianBlur stdDeviation="75" in="shadowOffsetOuter1" result="shadowBlurOuter1"></feGaussianBlur>
            <feColorMatrix values="0 0 0 0 0   0 0 0 0 0   0 0 0 0 0  0 0 0 0.603214291 0" type="matrix" in="shadowBlurOuter1"></feColorMatrix>
        </filter>
        <linearGradient x1="50%" y1="0%" x2="50%" y2="100%" id="linearGradient-55">
            <stop stop-color="#20404E" offset="0%"></stop>
            <stop stop-color="#091216" offset="100%"></stop>
        </linearGradient>
        <path d="M1151.50184,913 C1171.77184,913 1192.04111,919.234625 1209.36726,931.70021 L1209.36726,931.70021 L1210.14998,932.268935 L1361.77207,1043.97282 C1379.29716,1056.88401 1391.72632,1074.78242 1398.1007,1094.67572 C1404.36447,1114.22384 1404.7805,1135.69785 1398.44297,1156.25904 L1398.44297,1156.25904 L1398.15143,1157.18963 L1340.23695,1337.93032 C1333.54296,1358.82106 1320.59666,1376.33848 1303.90832,1388.63322 C1287.50375,1400.71888 1267.48325,1407.75666 1246.2319,1407.99384 L1246.2319,1407.99384 L1245.28824,1408 L1057.87632,1408 C1036.21411,1408 1015.7837,1400.92795 999.095356,1388.63322 C982.685224,1376.54345 969.894611,1359.40323 963.106914,1338.97283 L963.106914,1338.97283 L962.815467,1338.08243 L904.902972,1157.34795 C898.20898,1136.45721 898.52859,1114.56902 904.902972,1094.67572 C911.168959,1075.1207 923.286359,1057.49433 940.341574,1044.63614 L940.341574,1044.63614 L941.101443,1044.06872 L1092.72087,932.366784 C1110.24597,919.455595 1130.8739,913 1151.50184,913 Z" id="path-56"></path>
        <filter x="-44.9%" y="-45.3%" width="189.9%" height="191.3%" filterUnits="objectBoundingBox" id="filter-57">
            <feOffset dx="0" dy="2" in="SourceAlpha" result="shadowOffsetOuter1"></feOffset>
            <feGaussianBlur stdDeviation="75" in="shadowOffsetOuter1" result="shadowBlurOuter1"></feGaussianBlur>
            <feColorMatrix values="0 0 0 0 0   0 0 0 0 0   0 0 0 0 0  0 0 0 0.603214291 0" type="matrix" in="shadowBlurOuter1"></feColorMatrix>
        </filter>
        <linearGradient x1="50%" y1="0%" x2="50%" y2="100%" id="linearGradient-58">
            <stop stop-color="#20404E" offset="0%"></stop>
            <stop stop-color="#091216" offset="100%"></stop>
        </linearGradient>
        <path d="M1152.5016,963 C1162.60534,963 1172.70908,966.100588 1181.35442,972.301765 L1181.89285,972.693376 L1333.38606,1084.41448 C1342.14884,1090.87673 1348.36358,1099.83516 1351.55085,1109.79207 C1354.67308,1119.54577 1354.89015,1130.25761 1351.75139,1140.51971 L1351.55085,1141.16049 L1293.68559,1321.92904 C1290.33851,1332.38518 1283.86519,1341.15292 1275.5208,1347.30662 C1267.3433,1353.33726 1257.36881,1356.85737 1246.77869,1356.99576 L1246.12955,1357 L1058.87364,1357 C1048.04226,1357 1037.82679,1353.46033 1029.4824,1347.30662 C1021.30162,1341.27358 1014.91927,1332.72801 1011.51809,1322.54215 L1011.31761,1321.92904 L953.452349,1141.16049 C950.105267,1130.70435 950.265076,1119.74897 953.452349,1109.79207 C956.575878,1100.0343 962.606983,1091.23547 971.094434,1084.8052 L971.617139,1084.41448 L1123.11035,972.693376 C1131.87313,966.231125 1142.18736,963 1152.5016,963 Z" id="path-59"></path>
        <filter x="-56.1%" y="-56.9%" width="212.2%" height="214.7%" filterUnits="objectBoundingBox" id="filter-60">
            <feOffset dx="0" dy="2" in="SourceAlpha" result="shadowOffsetOuter1"></feOffset>
            <feGaussianBlur stdDeviation="75" in="shadowOffsetOuter1" result="shadowBlurOuter1"></feGaussianBlur>
            <feColorMatrix values="0 0 0 0 0   0 0 0 0 0   0 0 0 0 0  0 0 0 0.603214291 0" type="matrix" in="shadowBlurOuter1"></feColorMatrix>
        </filter>
    </defs>
    <g id="Symbols" stroke="none" stroke-width="1" fill="none" fill-rule="evenodd" opacity="0.300000012">
        <g id="bg" transform="translate(581.000000, 460.000000)" fill-rule="nonzero">
            <g id="5" transform="translate(-431.001599, -312.000000)">
                <g id="Path-Copy-18">
                    <use fill="black" fill-opacity="1" filter="url(#filter-3)" xlink:href="#path-2"></use>
                    <use fill="url(#linearGradient-1)" xlink:href="#path-2"></use>
                </g>
                <g id="Path-Copy-19">
                    <use fill="black" fill-opacity="1" filter="url(#filter-6)" xlink:href="#path-5"></use>
                    <use fill="url(#linearGradient-4)" xlink:href="#path-5"></use>
                </g>
                <g id="Path-Copy-17">
                    <use fill="black" fill-opacity="1" filter="url(#filter-9)" xlink:href="#path-8"></use>
                    <use fill="url(#linearGradient-7)" xlink:href="#path-8"></use>
                </g>
                <g id="Path-Copy-16">
                    <use fill="black" fill-opacity="1" filter="url(#filter-12)" xlink:href="#path-11"></use>
                    <use fill="url(#linearGradient-10)" xlink:href="#path-11"></use>
                </g>
                <g id="Path-Copy-15">
                    <use fill="black" fill-opacity="1" filter="url(#filter-15)" xlink:href="#path-14"></use>
                    <use fill="url(#linearGradient-13)" xlink:href="#path-14"></use>
                </g>
                <g id="Path-Copy-14">
                    <use fill="black" fill-opacity="1" filter="url(#filter-18)" xlink:href="#path-17"></use>
                    <use fill="url(#linearGradient-16)" xlink:href="#path-17"></use>
                </g>
                <g id="Path-Copy-13">
                    <use fill="black" fill-opacity="1" filter="url(#filter-21)" xlink:href="#path-20"></use>
                    <use fill="url(#linearGradient-19)" xlink:href="#path-20"></use>
                </g>
                <g id="Path-Copy-12">
                    <use fill="black" fill-opacity="1" filter="url(#filter-24)" xlink:href="#path-23"></use>
                    <use fill="url(#linearGradient-22)" xlink:href="#path-23"></use>
                </g>
                <g id="Path-Copy-11">
                    <use fill="black" fill-opacity="1" filter="url(#filter-27)" xlink:href="#path-26"></use>
                    <use fill="url(#linearGradient-25)" xlink:href="#path-26"></use>
                </g>
                <g id="Path-Copy-10">
                    <use fill="black" fill-opacity="1" filter="url(#filter-30)" xlink:href="#path-29"></use>
                    <use fill="url(#linearGradient-28)" xlink:href="#path-29"></use>
                </g>
                <g id="Path-Copy-9">
                    <use fill="black" fill-opacity="1" filter="url(#filter-33)" xlink:href="#path-32"></use>
                    <use fill="url(#linearGradient-31)" xlink:href="#path-32"></use>
                </g>
                <g id="Path-Copy-6">
                    <use fill="black" fill-opacity="1" filter="url(#filter-36)" xlink:href="#path-35"></use>
                    <use fill="url(#linearGradient-34)" xlink:href="#path-35"></use>
                </g>
                <g id="Path-Copy-7">
                    <use fill="black" fill-opacity="1" filter="url(#filter-39)" xlink:href="#path-38"></use>
                    <use fill="url(#linearGradient-37)" xlink:href="#path-38"></use>
                </g>
                <g id="Path-Copy-5">
                    <use fill="black" fill-opacity="1" filter="url(#filter-42)" xlink:href="#path-41"></use>
                    <use fill="url(#linearGradient-40)" xlink:href="#path-41"></use>
                </g>
                <g id="Path-Copy-4">
                    <use fill="black" fill-opacity="1" filter="url(#filter-45)" xlink:href="#path-44"></use>
                    <use fill="url(#linearGradient-43)" xlink:href="#path-44"></use>
                </g>
                <g id="Path-Copy-3">
                    <use fill="black" fill-opacity="1" filter="url(#filter-48)" xlink:href="#path-47"></use>
                    <use fill="url(#linearGradient-46)" xlink:href="#path-47"></use>
                </g>
                <g id="Path-Copy-2">
                    <use fill="black" fill-opacity="1" filter="url(#filter-51)" xlink:href="#path-50"></use>
                    <use fill="url(#linearGradient-49)" xlink:href="#path-50"></use>
                </g>
                <g id="Path-Copy">
                    <use fill="black" fill-opacity="1" filter="url(#filter-54)" xlink:href="#path-53"></use>
                    <use fill="url(#linearGradient-52)" xlink:href="#path-53"></use>
                </g>
                <g id="Path">
                    <use fill="black" fill-opacity="1" filter="url(#filter-57)" xlink:href="#path-56"></use>
                    <use fill="url(#linearGradient-55)" xlink:href="#path-56"></use>
                </g>
                <g id="Path">
                    <use fill="black" fill-opacity="1" filter="url(#filter-60)" xlink:href="#path-59"></use>
                    <use fill="url(#linearGradient-58)" xlink:href="#path-59"></use>
                </g>
            </g>
        </g>
    </g>
</svg>