<svg width="651" height="546" viewBox="0 0 651 546" xmlns="http://www.w3.org/2000/svg">
    <g fill="none" fill-rule="evenodd">
        <path d="M580.955 116.434c-20.634-60.554-85.94-93.478-146.918-74.07l-1.49.64a130.352 130.352 0 0 1-113.488-13.622C266.119-5.4 198.722-9.592 141.876 18.36 85.031 46.313 47.22 102.24 42.471 165.388c-2.342 30.436 16.182 68.535-6.175 89.393C-4.16 292.88-8.418 351.411 11.81 387.807c41.733 76.198 108.378 86.414 178.43 55.34 34.92-15.538 44.288 24.05 75.588 45.973 50.69 35.778 117.653 38.533 171.113 7.039 53.459-31.495 83.487-91.388 76.73-153.048-4.259-39.802 10.646-78.54 38.965-106.847 31.434-31.329 42.405-77.752 28.319-119.83z" fill="#F7F7F7" fill-rule="nonzero"/>
        <g transform="translate(376 217)">
            <path d="M149.826 195.084s-16.151.638-14.239 15.111c0 0 .425 15.964 2.126 65.556" stroke="#93E23B"/>
            <g fill-rule="nonzero">
                <path d="M23.802 7.142A54.693 54.693 0 0 0 0 39.07S25.077 5.227 57.38 17.784c0 0-18.701-20.22-33.578-10.642z" fill="#008C1A"/>
                <path d="M19.127 10.335s36.34-17.028 43.141 48.528c4.038 40.228 21.89 67.685 63.118 76.837 0 0 84.37-78.327-41.228-133.24 0 0-14.664-5.534-26.14 0 0 0-25.29-3.832-38.891 7.875z" fill="#94E33C"/>
                <path d="M61.418 4.588c4.676 3.618 9.138 7.45 13.601 11.494 4.463 4.044 8.926 7.875 13.177 12.132a355.378 355.378 0 0 1 12.326 12.983 114.927 114.927 0 0 1 10.626 14.474 94.173 94.173 0 0 1 11.688 34.055 291.6 291.6 0 0 1 3.826 35.757c.85 11.92 1.487 23.839 1.912 35.758l1.275 35.545 1.275 35.758c.425 11.92.85 23.839.425 35.758-1.487-11.92-2.337-23.839-2.975-35.545l-1.912-35.758c-1.276-23.838-2.126-47.464-3.613-71.303-.85-11.919-1.488-23.625-3.4-35.332a89.916 89.916 0 0 0-10.84-33.204 111.318 111.318 0 0 0-10.2-14.473c-3.613-4.682-7.65-8.94-11.689-13.41-8.075-8.513-16.576-16.814-25.502-24.689z" fill="#5D8B29"/>
            </g>
            <g fill-rule="nonzero">
                <path d="M260.124 83.766A40.026 40.026 0 0 1 275 108.882s-15.514-26.606-39.954-20.008c0 0 15.302-13.196 25.078-5.108z" fill="#008C1A"/>
                <path d="M263.311 86.533s-25.077-15.325-35.065 31.927c-6.163 28.734-21.252 47.251-51.855 50.657 0 0-55.042-63.428 40.379-93.44 0 0 11.05-2.979 18.914 2.13 0 0 18.702-.852 27.627 8.726z" fill="#94E33C"/>
                <path d="M233.134 78.87a123.666 123.666 0 0 0-19.977 12.984 75.939 75.939 0 0 0-15.94 17.028c-1.062 1.702-2.124 3.405-2.974 5.108l-2.55 5.321-2.338 5.321a59.013 59.013 0 0 0-2.125 5.534 172.822 172.822 0 0 0-6.376 22.774c-3.613 15.325-5.526 31.076-8.076 46.826l-3.188 23.626c-1.275 7.875-2.337 15.75-4.037 23.413.425-7.876 1.275-15.75 2.125-23.626l2.975-23.626c1.913-15.75 4.038-31.714 7.438-47.251a178.779 178.779 0 0 1 7.013-22.987c.638-1.703 1.275-3.619 2.126-5.534l2.55-5.534 2.55-5.321 3.188-5.109a75.075 75.075 0 0 1 17.001-16.814 111.534 111.534 0 0 1 20.615-12.132z" fill="#5D8B29"/>
            </g>
            <g fill-rule="nonzero">
                <path d="M84.158 156.346s60.78.426 69.493 26.393c11.689-3.832 17.215-27.883-4.462-42.144-21.677-14.26-64.819 6.173-65.031 15.75z" fill="#008C1A"/>
                <path d="M82.245 137.828s-22.527-6.172-34.428 9.153c-18.702 23.625.637 86.84 25.29 87.053 17.001 0 28.265-44.484 35.915-57.894 10.626-18.517 19.765-33.629 40.167-35.545a75.342 75.342 0 0 0-66.944-2.767z" fill="#03C327"/>
                <path d="m75.444 143.575 1.488-1.703 1.7-1.702 1.7-1.277.85-.639.85-.426-4.037-.638-1.276 1.064-1.7 1.703-1.7 1.915-1.487 2.129-1.276 1.916-2.125 4.47c-.425 1.49-1.062 2.979-1.487 4.682l-.638 2.341c-.212.426-.212.851-.425 1.064v1.277l-.638 4.896-.425 4.682a37.73 37.73 0 0 0 0 4.896v4.682l.425 4.896c.213 1.49.213 3.192.425 4.682l.85 4.683a39.43 39.43 0 0 0 .85 4.895l2.126 9.153-1.7-9.366c-.425-1.49-.425-3.192-.85-4.682l-.425-4.683c-.213-1.702-.213-3.192-.425-4.682v-4.896a34.533 34.533 0 0 1 .212-4.682 33.04 33.04 0 0 1 .213-4.683l.425-4.682c.425-1.703.637-3.193 1.062-4.683v-1.064c.043-.453.188-.89.425-1.277l.638-2.129a38.348 38.348 0 0 1 1.7-4.47 24.277 24.277 0 0 1 2.125-4.043l1.275-1.916a5.746 5.746 0 0 1 1.275-1.703z" fill="#5D8B29"/>
            </g>
            <path d="M163.852 313h-35.49a7.441 7.441 0 0 1-7.439-6.173l-11.688-65.77h73.744l-11.688 65.77a7.441 7.441 0 0 1-7.439 6.172z" fill="#626D63" fill-rule="nonzero"/>
            <rect fill="#424B42" fill-rule="nonzero" x="103.709" y="235.524" width="84.795" height="18.07" rx="1.9"/>
            <g fill-rule="nonzero">
                <path d="M189.142 208.706s-41.866-12.345-53.555 3.405c-7.013-4.895-5.95-22.561 11.901-27.883 17.852-5.32 43.354 17.667 41.654 24.478z" fill="#008C1A"/>
                <path d="M194.243 196.36s16.576.426 21.677 13.41c7.863 20.22-33.366 49.805-33.366 49.805s.213-32.565-3.4-42.994c-7.863-21.497-18.064-26.819-31.666-32.353a54.133 54.133 0 0 1 46.755 12.133z" fill="#03C327"/>
                <path d="m197.643 201.469-.638-1.49-.85-1.277-.85-1.277-.637-.639-.425-.425h2.975l.637 1.064.85 1.49.638 1.702c.271.544.485 1.115.638 1.703.238.539.382 1.115.425 1.703.315 1.186.528 2.396.637 3.618a18.332 18.332 0 0 1 0 3.406v3.405l-.637 3.619-.638 3.405c-.212 1.064-.637 2.129-.85 3.193a20.882 20.882 0 0 0-1.063 3.405l-1.275 3.193c-.637 1.064-.85 2.128-1.487 3.193l-1.488 2.98a21.512 21.512 0 0 1-1.488 3.192l-3.4 5.96 3.188-6.173 1.275-3.192 1.488-2.98 1.275-3.193 1.062-3.192c.359-1.116.643-2.253.85-3.406.383-1.035.667-2.104.85-3.193l.638-3.405c.177-1.126.248-2.266.213-3.406v-3.405a21.315 21.315 0 0 0-.425-3.406 17.05 17.05 0 0 0-.638-3.192 4.049 4.049 0 0 0-.425-1.49 5.54 5.54 0 0 0-.425-1.49z" fill="#5D8B29"/>
            </g>
        </g>
        <g transform="translate(27 185)" fill-rule="nonzero">
            <path d="M312.879 72.586c-3.428-22.583-17.75-42.013-38.27-51.92a68.778 68.778 0 0 0-64.327 2.385 91.957 91.957 0 0 1-42.145 12.384 66.424 66.424 0 0 0-9.366.854c-31.831 4.672-58.422 26.734-68.965 57.222-5.445 15.997-17.686 28.745-33.418 34.802C15.45 143.62-7.72 187.106 2.34 229.753c10.06 42.645 50.203 71.103 93.638 66.382 13.41-1.495 25.755-10.035 36.398-20.925 27.033-28.397 66.411-39.927 105.15-34.802 1.968.346 3.965.49 5.96.427 19.647-.694 38.065-9.764 50.626-24.933a69.33 69.33 0 0 0 15.147-54.494l-.638-2.99c-3.406-18.361-3.619-37.364 1.915-55.086a70.668 70.668 0 0 0 2.342-30.746z" fill="#0E1B1F"/>
            <path d="M283.079 80.486c-1.277 7.9 2.767 15.373 8.94 16.44 6.173 1.068 12.346-4.696 13.623-12.81 1.277-8.113-2.555-15.373-8.727-16.44-6.173-1.068-12.346 4.697-13.836 12.81z" fill="#94E33C"/>
            <ellipse fill="#FFF" transform="rotate(-80.4 288.59 81.225)" cx="288.591" cy="81.225" rx="18.788" ry="14.688"/>
            <path d="M307.345 326.24s31.076-86.473 22.988-127.254c-4.896-24.98-30.013-66.189-78.544-66.189-32.141 0-91.528 21.778-87.484 80.068 2.342 34.162 8.94 75.156 40.017 113.375 0 0 54.704 26.262 103.023 0z" fill="#D9511E"/>
            <path d="M281.163 260.264c2.767-39.713 4.683-92.024 9.366-117.005a73.687 73.687 0 0 0-38.74-10.462 109.546 109.546 0 0 0-39.591 8.54c4.683 23.06 9.153 46.12 12.133 69.606 3.405 26.903 3.831 53.805 3.618 80.921 0 14.092-.638 27.97-1.277 42.063a128.392 128.392 0 0 0 51.298 2.348c-1.064-24.767 1.49-51.243 3.193-76.01z" fill="#FFF"/>
            <path d="M249.235 284.605c-17.454-8.54-33.631-20.71-48.957-32.668-15.326-11.956-26.82-22.845-35.76-38.005 2.342 33.949 9.153 74.516 39.804 112.308 0 0 54.704 26.262 103.023 0 0 0 3.405-9.608 7.875-24.127a179.214 179.214 0 0 1-65.985-17.508z" fill="#0073BA" opacity=".1"/>
            <path d="M251.79 158.846a16.791 16.791 0 0 1-11.967-5.016 16.895 16.895 0 0 1-4.85-12.065l4.258-60.425h25.33l4.257 60.425c0 9.433-7.624 17.08-17.029 17.08z" fill="#FFA587"/>
            <path d="m265.625 95.219-27.246-2.562-1.064 14.092c2.341 15.586 13.197 32.454 28.097 32.454h3.193l-2.98-43.984z" fill="#F5876E"/>
            <path d="M263.496 132.797c-14.474-2.562-26.82-21.778-27.032-36.724-.213-14.946 4.044-32.027 4.044-32.027s45.764-10.462 54.704 0c8.94 10.462-2.555 30.746-5.535 40.354-4.257 14.305-19.795 29.465-26.18 28.397z" fill="#FFB49B"/>
            <path d="M228.162 78.778c-.619 3.121.051 6.36 1.857 8.976a11.703 11.703 0 0 0 7.722 4.903l4.257-23.7a11.891 11.891 0 0 0-8.962 2.014 11.961 11.961 0 0 0-4.874 7.807z" fill="#FFA587"/>
            <path d="m298.192 66.395-44.7-7.9-1.703 9.821c-4.683-.64-11.707-.854-12.558 3.843-.213 1.068-4.47 8.114-4.257 9.181a98.974 98.974 0 0 0 10.43-3.416 12.099 12.099 0 0 1 7.237-.854 21.654 21.654 0 0 0 15.112-2.562 25.897 25.897 0 0 1 20.647-1.922l4.47 1.068 3.832.427 1.49-7.686z" fill="#FFA587"/>
            <path d="M302.449.419a33.771 33.771 0 0 0-27.246 7.686 42.91 42.91 0 0 1-27.67 9.182h-.427c-11.224.312-21.148 7.398-25.117 17.935l-1.277 4.27a29.725 29.725 0 0 1-5.534 12.81 14.111 14.111 0 0 0-2.767 5.979c-1.022 8.214 4.624 15.765 12.771 17.081 3.318.579 6.733.132 9.792-1.281a11.887 11.887 0 0 1 8.514-1.068 27.598 27.598 0 0 0 18.093-3.202 30.567 30.567 0 0 1 24.478-2.349c1.713.65 3.5 1.081 5.321 1.281a34.612 34.612 0 0 0 26.334-5.953 34.818 34.818 0 0 0 14.109-23.085C334.377 21.557 320.754 2.981 302.449.42z" fill="#0E1B1F"/>
            <path d="M241.785 327.094h171.562a4.892 4.892 0 0 1 3.933 2.155 4.924 4.924 0 0 1 .537 4.464l-2.98 8.754a4.896 4.896 0 0 1-4.683 3.203H238.592a4.892 4.892 0 0 1-3.934-2.155 4.924 4.924 0 0 1-.536-4.464l2.98-8.54a4.684 4.684 0 0 1 4.683-3.417z" fill="#E6DCDC"/>
            <g fill="#D9511E">
                <path d="M315.433 166.105s42.997 63.627 54.278 89.462c15.964 36.938 41.507 76.651 41.507 76.651s-41.932-1.28-59.387-23.486c0 0-3.405-15.16-5.747-31.813-2.341-16.655-36.824-46.973-36.824-46.973l6.173-63.84zM187.294 156.497s-67.05 80.495-78.544 120.422c-7.024 24.554-4.257 41.208 19.583 57.648a61.165 61.165 0 0 0 35.972 10.462H235.4a6.816 6.816 0 0 0 6.599-5.338s3.193-30.105-17.454-37.791c-20.647-7.687-55.343-10.036-58.323-33.522-1.49-12.17 41.72-68.324 41.72-68.324s-4.683-33.949-20.647-43.557z"/>
            </g>
            <path d="m295.85 345.67 23.508-109.343a17 17 0 0 1 16.62-13.427H459.14c9.389 0 17 7.61 17 17a17 17 0 0 1-.38 3.573L453.79 345.67H295.85z" fill="#0B161A"/>
            <path d="m302.236 345.67 24.696-114.872a10 10 0 0 1 9.777-7.898h139.61c5.523 0 10 4.477 10 10a10 10 0 0 1-.223 2.102L462.303 345.67H302.236z" fill="#122228"/>
            <ellipse fill="#FFF" opacity=".1" transform="rotate(-79.6 395.722 284.77)" cx="395.722" cy="284.771" rx="17.506" ry="17.456"/>
            <path fill="#C2C2C2" d="M58.516 345.029H550V361H58.516z"/>
            <path d="M301.172 344.816a3.022 3.022 0 0 0 2.846-1.033c.697-.83.9-1.969.533-2.989a3.03 3.03 0 0 0-2.315-1.957 383.552 383.552 0 0 0-44.274-13.878l-27.458-5.551-1.49 16.013 18.944 9.395h53.214z" fill="#FFB49B"/>
            <path d="m248.383 323.037-17.88-3.63-1.49 16.014 18.945 9.395c-3.193-7.473-5.96-14.733.425-21.779z" fill="#FFA587"/>
            <path d="M272.649 10.027a22.571 22.571 0 0 1 5.534-4.27h-9.365c-20.49.117-37.037 16.812-37.037 37.365v21.564h4.257V43.122c0-18.195 14.641-32.978 32.78-33.095h3.831z" fill="#03C327"/>
            <ellipse fill="#FFF" cx="233.696" cy="77.284" rx="14.687" ry="18.789"/>
            <path d="M239.444 77.284c0 8.113-5.109 14.732-11.495 14.732-6.385 0-11.494-6.619-11.494-14.732 0-8.114 5.109-14.733 11.494-14.733 6.386 0 11.495 6.62 11.495 14.733z" fill="#94E33C"/>
        </g>
        <path d="M342.493 82.566c10.122-19.511 6.014-43.375-10.05-58.377-16.064-15.003-40.151-17.472-58.924-6.04-18.773 11.431-27.637 33.966-21.683 55.124 5.954 21.159 25.268 35.764 47.248 35.727a47.71 47.71 0 0 0 25.143-7.092l16.03.92a3 3 0 0 0 3.167-3.157l-.93-17.105zM205.36 173.815c11.403-21.673 5.054-48.436-14.87-62.677-19.922-14.241-47.3-11.586-64.114 6.218-16.815 17.804-17.903 45.289-2.547 64.366 15.355 19.077 42.437 23.888 63.423 11.266l15.868.919a3 3 0 0 0 3.169-3.16l-.93-16.932zM405.589 166.779A50.085 50.085 0 0 1 400 144.214a49.007 49.007 0 0 1 20.519-40.088 49 49 0 0 1 73.77 58.574A48.999 48.999 0 0 1 449 192.997a47.496 47.496 0 0 1-25.144-6.877h-15.267a3 3 0 0 1-3-3V166.78z" stroke="#112025" stroke-width="3"/>
        <path d="M157.347 169.01h6.7V176h-6.7v-6.99zM146 142.096c0-4.838 1.37-8.73 4.108-11.676 2.738-2.946 6.498-4.419 11.28-4.419 4.421 0 7.962 1.26 10.622 3.78 2.66 2.52 3.99 5.74 3.99 9.66 0 2.375-.488 4.302-1.465 5.78-.976 1.479-2.946 3.652-5.909 6.52-2.155 2.083-3.552 3.847-4.192 5.292-.64 1.444-.96 3.578-.96 6.4h-5.993c0-3.203.382-5.784 1.145-7.744s2.436-4.206 5.017-6.738l2.694-2.654c.808-.762 1.459-1.557 1.953-2.386.897-1.456 1.346-2.968 1.346-4.536 0-2.196-.656-4.1-1.97-5.713-1.312-1.613-3.484-2.42-6.514-2.42-3.75 0-6.342 1.39-7.778 4.168-.808 1.545-1.269 3.774-1.38 6.686H146z" fill="#112126" fill-rule="nonzero"/>
        <g transform="translate(280 54)" fill="#112126" fill-rule="nonzero">
            <ellipse cx="4.956" cy="5" rx="4.956" ry="5"/>
            <ellipse cx="19.392" cy="5" rx="4.956" ry="5"/>
            <ellipse cx="34.044" cy="5" rx="4.956" ry="5"/>
        </g>
        <path d="m438.135 137.69 4.247-4.253a5.108 5.108 0 0 0 0-6.804l-6.37-6.166a4.669 4.669 0 0 0-6.796 0l-1.062 1.063a13.834 13.834 0 0 0-1.91 17.436 101.355 101.355 0 0 0 27.817 27.641 13.577 13.577 0 0 0 17.412-1.7l1.062-1.064a4.68 4.68 0 0 0 0-6.804l-6.158-6.379a4.669 4.669 0 0 0-6.795 0l-4.247 4.253a82.657 82.657 0 0 1-17.2-17.223z" fill="#112126" fill-rule="nonzero"/>
    </g>
</svg>
